<svg xmlns="http://www.w3.org/2000/svg" viewBox="0 0 720 420">
<rect width="720" height="420" rx="28" fill="#091c2e"/>
<g transform="translate(116 72)">
  <path d="M244 28c-45-25-91-24-139 5v246c48-25 94-26 139-4V28Z" fill="#284a3d" stroke="#d5b36b" stroke-width="5"/>
  <path d="M244 28c45-25 91-24 139 5v246c-48-25-94-26-139-4V28Z" fill="#6d3d48" stroke="#d5b36b" stroke-width="5"/>
  <path d="M244 30v244" stroke="#d5b36b" stroke-width="4"/>
  <rect x="410" y="84" width="132" height="112" rx="12" fill="#f7f2eb" transform="rotate(5 476 140)"/>
  <rect x="426" y="100" width="100" height="72" rx="7" fill="#20384d"/>
  <circle cx="477" cy="136" r="19" fill="#eb929c"/>
  <path d="M427 166l31-28 24 20 20-16 24 24" fill="none" stroke="#d9b86d" stroke-width="5" stroke-linecap="round" stroke-linejoin="round"/>
</g>
<text x="360" y="365" fill="#9dafbf" font-family="system-ui,sans-serif" font-size="22" text-anchor="middle">写真を一枚追加すると、ここから図鑑が始まります</text>
</svg>